<svg xmlns="http://www.w3.org/2000/svg" viewBox="0 0 520 180" width="520" height="180" role="img" aria-label="SWIP">
  <title>SWIP</title>
  <defs>
    <linearGradient id="foil" gradientUnits="userSpaceOnUse"
                    x1="0" y1="140" x2="416" y2="20">
      <stop offset="0" stop-color="#6E4F14"/>
      <stop offset="0.14" stop-color="#A67C22"/>
      <stop offset="0.33" stop-color="#D8B252"/>
      <stop offset="0.47" stop-color="#F6E4A6"/>
      <stop offset="0.53" stop-color="#FFF7DB"/>
      <stop offset="0.62" stop-color="#E3C46B"/>
      <stop offset="0.78" stop-color="#B98F2C"/>
      <stop offset="0.9" stop-color="#8A6620"/>
      <stop offset="1" stop-color="#5E430F"/>
    </linearGradient>
    <linearGradient id="sheen" gradientUnits="userSpaceOnUse"
                    x1="0" y1="140" x2="416" y2="20">
      <stop offset="0.30" stop-color="#FFFFFF" stop-opacity="0"/>
      <stop offset="0.46" stop-color="#FFFFFF" stop-opacity="0.42"/>
      <stop offset="0.58" stop-color="#FFFFFF" stop-opacity="0"/>
    </linearGradient>
  </defs>
  <g transform="translate(52,0) translate(0,80) skewX(-12) translate(0,-80)">
    <g fill="url(#foil)">
      <polygon points="26,20 92,20 92,48 28,48 28,94 0,94 0,46"/>
      <rect x="0" y="66" width="92" height="28"/>
      <polygon points="64,66 92,66 92,114 66,140 0,140 0,112 64,112"/>
      <polygon points="114,20 142,20 166,140 138,140"/>
      <polygon points="138,140 166,140 195,62 167,62"/>
      <polygon points="167,62 195,62 224,140 196,140"/>
      <polygon points="196,140 224,140 248,20 220,20"/>
      <rect x="270" y="20" width="28" height="120"/>
      <rect x="320" y="20" width="28" height="120"/>
      <rect x="320" y="20" width="96" height="28"/>
      <rect x="388" y="20" width="28" height="80"/>
      <rect x="320" y="72" width="96" height="28"/>
    </g>
    <g fill="url(#sheen)">
      <polygon points="26,20 92,20 92,48 28,48 28,94 0,94 0,46"/>
      <rect x="0" y="66" width="92" height="28"/>
      <polygon points="64,66 92,66 92,114 66,140 0,140 0,112 64,112"/>
      <polygon points="114,20 142,20 166,140 138,140"/>
      <polygon points="138,140 166,140 195,62 167,62"/>
      <polygon points="167,62 195,62 224,140 196,140"/>
      <polygon points="196,140 224,140 248,20 220,20"/>
      <rect x="270" y="20" width="28" height="120"/>
      <rect x="320" y="20" width="28" height="120"/>
      <rect x="320" y="20" width="96" height="28"/>
      <rect x="388" y="20" width="28" height="80"/>
      <rect x="320" y="72" width="96" height="28"/>
    </g>
  </g>
</svg>
